<svg aria-hidden="true" style="position: absolute; width: 0; height: 0; overflow: hidden;" version="1.1" xmlns="http://www.w3.org/2000/svg" xmlns:xlink="http://www.w3.org/1999/xlink">
<defs>
<symbol id="icon-bxl-digg" viewBox="0 0 32 32">
<path d="M22.404 11.733v9.068h4.267v1.065h-4.267v2.136h6.933v-12.269h-6.933zM14.404 11.733v9.068h4.265v1.065h-4.265v2.136h6.932v-12.269h-6.932zM6.933 7.999v3.735h-4.267v9.068h6.935v-12.803h-2.668zM13.335 11.733h-2.667v9.068h2.667v-9.068zM26.671 18.667h-1.6v-4.801h1.6v4.801zM6.933 18.667h-1.6v-4.801h1.6v4.801zM18.669 18.667h-1.6v-4.801h1.6v4.801zM13.335 7.999h-2.667v2.667h2.667v-2.667z"></path>
</symbol>
<symbol id="icon-bxl-dropbox" viewBox="0 0 32 32">
<path d="M9.339 4.667l-6.672 4.252 6.672 4.248 6.669-4.248zM22.679 4.667l-6.671 4.252 6.671 4.248 6.671-4.248zM2.667 17.416l6.672 4.249 6.669-4.249-6.669-4.249zM22.679 13.167l-6.671 4.249 6.671 4.249 6.671-4.249zM9.339 23.081l6.669 4.252 6.671-4.252-6.671-4.248z"></path>
</symbol>
<symbol id="icon-bxl-ebay" viewBox="0 0 32 32">
<path d="M9.361 16.148v-5.476h1.335v3.367c0.657-0.781 1.56-1.008 2.451-1.008 1.491 0 3.148 1.005 3.148 3.177 0 0.26-0.019 0.508-0.068 0.745 0.267-1.063 1.417-1.453 3.224-1.497 0.568-0.021 1.219-0.021 1.736-0.021v-0.148c0-0.984-0.619-1.385-1.701-1.385-0.803 0-1.387 0.333-1.453 0.901h-1.419c0.151-1.435 1.671-1.803 2.989-1.803 1.185 0 2.221 0.3 2.689 1.136l-0.487-0.936h1.569l2.288 4.591 2.288-4.593h1.383l-4.14 8.131h-1.499l1.192-2.271-2.593-4.875c0.144 0.284 0.223 0.62 0.223 1.036v2.74c0 0.385 0.012 0.765 0.045 1.117h-1.241c-0.033-0.284-0.051-0.568-0.051-0.852-0.671 0.817-1.471 1.071-2.583 1.071-1.648 0-2.529-0.869-2.529-1.888 0-0.167 0.017-0.315 0.041-0.451-0.335 1.388-1.513 2.32-3.080 2.32-0.969 0-1.885-0.349-2.449-1.033 0 0.268-0.017 0.549-0.044 0.815h-1.315c0.024-0.432 0.045-0.951 0.045-1.383v-1.169h-5.376c0.072 1.219 0.911 1.935 2.063 1.935 0.799 0 1.508-0.333 1.745-1.033h1.38c-0.267 1.437-1.792 1.919-3.105 1.919-2.385 0.024-3.443-1.297-3.443-3.068 0-1.951 1.092-3.237 3.469-3.237 1.879 0 3.26 0.984 3.272 3.123v0.005zM19.531 16.352c-1.22 0.036-1.972 0.257-1.972 1.057 0 0.519 0.401 1.079 1.453 1.079 1.403 0 2.153-0.765 2.153-2.019v-0.145c-0.501 0-1.101 0.008-1.652 0.027h0.015l0.003 0.001zM12.785 18.437c1.236 0 2.088-0.896 2.088-2.248s-0.856-2.248-2.107-2.248c-1.237 0-2.104 0.896-2.104 2.248s0.852 2.248 2.087 2.248h0.036zM7.944 15.64c-0.049-1.252-0.952-1.721-1.92-1.721-1.051 0-1.885 0.527-2.021 1.721h3.941z"></path>
</symbol>
<symbol id="icon-bxl-etsy" viewBox="0 0 32 32">
<path d="M14.852 18.744c-0.584 0-0.924-0.392-0.924-1.411v-3.595l1.941 0.149 0.099-0.925-1.995 0.099v-2.040h-0.584c-0.288 1.601-1.012 2.184-1.984 2.283v0.485h1.159v4.083c0 1.115 0.784 1.695 1.751 1.695 0.78 0 1.603-0.34 1.891-1.017l-0.289-0.34c-0.144 0.24-0.536 0.535-1.064 0.535zM10.193 17.673c-0.392 0.92-1.023 0.972-1.653 0.972h-2.040c-0.677 0-0.972-0.248-0.972-0.827v-3.011c0 0 1.456 0 1.943 0.052 0.388 0.047 0.584 0.145 0.728 0.631l0.144 0.681h0.584l-0.052-1.745 0.099-1.704h-0.579l-0.196 0.78c-0.097 0.532-0.196 0.584-0.728 0.677-0.677 0.051-1.943 0.051-1.943 0.051v-3.592c0-0.149 0-0.196 0.247-0.196h3.055c0.536 0 0.827 0.435 1.017 1.307l0.196 0.683h0.532c0.052-1.943 0.099-2.765 0.099-2.765s-1.308 0.14-2.083 0.14h-3.884l-2.040-0.041v0.532l0.677 0.143c0.489 0.099 0.633 0.196 0.633 0.631 0 0 0.052 1.312 0.052 3.492 0 2.185-0.052 3.497-0.052 3.497 0 0.388-0.144 0.532-0.633 0.631l-0.677 0.151v0.528l2.087-0.047h3.497c0.775 0 2.62 0.047 2.62 0.047 0.045-0.481 0.288-2.619 0.34-2.861h-0.491l-0.527 1.165zM18.247 14.177c0-0.632 0.583-0.873 1.167-0.873 0.48 0 0.871 0.196 0.972 0.433l0.34 0.972 0.481-0.047c0-0.485 0.051-1.117 0.148-1.601-0.437-0.196-1.311-0.295-1.895-0.295-1.312 0-2.329 0.588-2.329 1.849 0 2.232 3.253 1.747 3.253 3.399 0 0.532-0.341 0.972-1.168 0.972-0.775 0-1.116-0.392-1.26-0.78l-0.387-0.924h-0.492c0.053 0.635 0.099 1.264 0 1.843 0 0 1.023 0.392 2.041 0.392 1.363 0 2.477-0.676 2.477-1.943 0-2.232-3.349-1.895-3.349-3.397zM26.739 12.917v0.485l0.345 0.099c0.336 0.093 0.48 0.237 0.48 0.484 0 0.144-0.045 0.192-0.097 0.388-0.144 0.388-1.069 2.671-1.549 3.689-0.584-1.456-1.363-3.637-1.457-3.932-0.047-0.097-0.047-0.144-0.047-0.195 0-0.197 0.14-0.389 0.481-0.435l0.439-0.099v-0.485l-1.795 0.097-1.461-0.052v0.491l0.249 0.092c0.335 0.099 0.383 0.147 0.625 0.683 0.924 2.040 1.943 4.705 2.288 5.533-0.779 1.359-1.605 1.745-2.236 1.745-0.388 0-0.532-0.196-0.58-0.439l-0.195-1.017-0.533 0.047c-0.097 0.636-0.196 1.312-0.34 1.844 0.383 0.243 0.821 0.392 1.404 0.391 0.921 0 2.233-0.243 3.497-3.109l2.135-4.996c0.193-0.391 0.243-0.439 0.728-0.635l0.244-0.192v-0.483l-1.26 0.045-1.365-0.045z"></path>
</symbol>
<symbol id="icon-bxl-joomla" viewBox="0 0 32 32">
<path d="M20.719 18.745l-5.331 5.336c-1.368 1.365-3.297 1.831-5.047 1.397-0.327 1.424-1.604 2.489-3.131 2.489-1.772 0-3.211-1.436-3.211-3.212 0-1.517 1.056-2.789 2.469-3.123-0.445-1.759 0.017-3.704 1.396-5.081l0.18-0.18 2.369 2.371-0.184 0.18c-0.769 0.78-0.769 2.025 0 2.789 0.769 0.781 2.023 0.781 2.787 0l0.465-0.465 4.869-4.876 2.367 2.375zM21.643 25.396c-1.821 0.564-3.885 0.121-5.328-1.317l-0.18-0.185 2.364-2.369 0.18 0.185c0.771 0.768 2.019 0.768 2.787 0 0.765-0.765 0.769-2.011-0.003-2.781l-0.467-0.465-4.867-4.873 2.369-2.368 5.331 5.34c1.364 1.36 1.845 3.277 1.411 5.021 1.561 0.221 2.76 1.556 2.76 3.177 0 1.784-1.439 3.209-3.208 3.209-1.545 0-2.852-1.096-3.136-2.565l-0.013-0.008zM10.975 13.447l5.34-5.336c1.424-1.425 3.457-1.875 5.265-1.336 0.212-1.561 1.556-2.775 3.179-2.775 1.772 0 3.211 1.437 3.211 3.209 0 1.631-1.216 2.976-2.791 3.187 0.52 1.799 0.069 3.815-1.349 5.233l-0.183 0.185-2.369-2.369 0.185-0.184c0.768-0.771 0.768-2.016 0-2.783-0.767-0.767-2.011-0.768-2.781 0.003l-0.463 0.461-4.875 4.869-2.369-2.365zM8.321 16.092l-0.461-0.463c-1.431-1.429-1.875-3.475-1.332-5.287-1.428-0.328-2.499-1.603-2.499-3.133 0-1.771 1.441-3.209 3.211-3.209 1.596 0 2.92 1.167 3.171 2.692 1.731-0.405 3.627 0.065 4.979 1.415l0.184 0.187-2.371 2.368-0.183-0.181c-0.769-0.765-2.016-0.765-2.784 0-0.772 0.781-0.771 2.025-0.005 2.789l0.465 0.467 4.875 4.875-2.367 2.369-4.881-4.875v-0.013h-0.001z"></path>
</symbol>
<symbol id="icon-bxl-jquery" viewBox="0 0 32 32">
<path d="M4.46 9.247c-2.341 3.364-2.051 7.741-0.261 11.316 0.043 0.085 0.087 0.171 0.131 0.253 0.028 0.053 0.055 0.109 0.084 0.161 0.016 0.032 0.035 0.063 0.052 0.092 0.031 0.056 0.061 0.111 0.093 0.167 0.056 0.097 0.112 0.195 0.171 0.292 0.032 0.053 0.064 0.107 0.097 0.16 0.064 0.104 0.131 0.208 0.197 0.309 0.028 0.044 0.056 0.088 0.084 0.131 0.092 0.139 0.188 0.277 0.287 0.415 0.003 0.003 0.005 0.007 0.008 0.011 0.016 0.021 0.032 0.043 0.048 0.065 0.084 0.117 0.172 0.233 0.261 0.348 0.033 0.043 0.065 0.084 0.099 0.125 0.080 0.1 0.16 0.197 0.243 0.297 0.029 0.036 0.061 0.073 0.092 0.109 0.109 0.129 0.223 0.259 0.336 0.385 0.001 0.001 0.004 0.004 0.007 0.007 0.005 0.005 0.009 0.008 0.013 0.015 0.111 0.121 0.227 0.241 0.341 0.361 0.036 0.036 0.073 0.073 0.111 0.111 0.089 0.089 0.181 0.179 0.273 0.268 0.037 0.036 0.075 0.072 0.112 0.107 0.123 0.116 0.248 0.229 0.375 0.341 0.001 0.001 0.004 0.003 0.005 0.005 0.021 0.019 0.044 0.037 0.065 0.055 0.111 0.097 0.225 0.193 0.34 0.287 0.047 0.037 0.093 0.076 0.14 0.112 0.093 0.075 0.188 0.149 0.283 0.221 0.051 0.039 0.101 0.077 0.152 0.116 0.105 0.077 0.211 0.153 0.319 0.228 0.039 0.028 0.076 0.056 0.116 0.083 0.011 0.008 0.021 0.016 0.032 0.023 0.101 0.071 0.205 0.137 0.308 0.204 0.044 0.029 0.088 0.060 0.135 0.089 0.159 0.101 0.32 0.2 0.484 0.296 0.044 0.025 0.088 0.051 0.133 0.075 0.12 0.069 0.24 0.139 0.363 0.204 0.067 0.035 0.133 0.069 0.201 0.104 0.087 0.045 0.172 0.091 0.26 0.135 0.020 0.011 0.040 0.020 0.060 0.029 0.035 0.016 0.071 0.033 0.107 0.052 0.136 0.064 0.273 0.129 0.411 0.191 0.029 0.012 0.059 0.025 0.088 0.039 0.159 0.069 0.319 0.136 0.48 0.199 0.039 0.016 0.079 0.031 0.117 0.047 0.151 0.059 0.301 0.115 0.453 0.169 0.020 0.007 0.039 0.013 0.056 0.020 0.167 0.059 0.336 0.113 0.507 0.165 0.040 0.012 0.081 0.025 0.123 0.037 0.171 0.052 0.341 0.113 0.52 0.147 11.323 2.064 14.611-6.803 14.611-6.803-2.763 3.597-7.664 4.547-12.309 3.491-0.176-0.040-0.348-0.095-0.52-0.145-0.043-0.013-0.085-0.027-0.129-0.039-0.167-0.052-0.333-0.105-0.5-0.164-0.020-0.007-0.045-0.016-0.065-0.024-0.149-0.052-0.296-0.107-0.441-0.164-0.041-0.016-0.083-0.032-0.124-0.048-0.16-0.063-0.319-0.129-0.475-0.197-0.033-0.013-0.063-0.028-0.095-0.041-0.136-0.061-0.269-0.123-0.401-0.187-0.037-0.019-0.077-0.036-0.116-0.056-0.104-0.051-0.207-0.105-0.309-0.157-0.068-0.036-0.139-0.071-0.207-0.109-0.125-0.067-0.249-0.137-0.371-0.208-0.041-0.024-0.084-0.045-0.125-0.069-0.163-0.096-0.324-0.195-0.484-0.297-0.044-0.028-0.087-0.057-0.131-0.087-0.116-0.075-0.231-0.151-0.345-0.229-0.037-0.025-0.073-0.053-0.111-0.079-0.109-0.077-0.219-0.155-0.325-0.235-0.049-0.036-0.096-0.072-0.144-0.109-0.099-0.076-0.196-0.152-0.293-0.231-0.044-0.035-0.088-0.069-0.132-0.105-0.123-0.101-0.245-0.203-0.365-0.308-0.012-0.011-0.027-0.023-0.040-0.033-0.131-0.115-0.259-0.232-0.385-0.351-0.037-0.035-0.073-0.068-0.108-0.104-0.095-0.089-0.187-0.179-0.277-0.271-0.036-0.036-0.073-0.072-0.108-0.108-0.115-0.117-0.228-0.237-0.339-0.359-0.005-0.005-0.011-0.011-0.016-0.016-0.117-0.128-0.232-0.26-0.344-0.391-0.031-0.037-0.060-0.072-0.089-0.108-0.084-0.1-0.167-0.203-0.248-0.305-0.029-0.037-0.060-0.075-0.091-0.112-0.097-0.127-0.193-0.252-0.287-0.381-2.579-3.517-3.504-8.369-1.444-12.353z"></path>
<path d="M11.725 6.412c-1.693 2.436-1.6 5.697-0.28 8.273 0.221 0.432 0.471 0.852 0.748 1.251 0.255 0.364 0.535 0.796 0.872 1.088 0.123 0.135 0.249 0.265 0.379 0.393 0.033 0.033 0.067 0.065 0.101 0.099 0.125 0.123 0.253 0.243 0.388 0.361 0.004 0.004 0.009 0.009 0.015 0.013 0.003 0.001 0.004 0.001 0.004 0.003 0.148 0.129 0.299 0.253 0.453 0.375 0.035 0.027 0.068 0.053 0.104 0.080 0.155 0.119 0.312 0.236 0.473 0.347 0.004 0.004 0.008 0.007 0.015 0.011 0.071 0.049 0.144 0.096 0.215 0.143 0.035 0.023 0.068 0.047 0.104 0.068 0.116 0.075 0.232 0.147 0.351 0.216 0.017 0.009 0.033 0.019 0.051 0.029 0.101 0.059 0.207 0.116 0.311 0.173 0.035 0.020 0.073 0.039 0.109 0.057 0.073 0.037 0.144 0.076 0.217 0.111 0.012 0.005 0.023 0.011 0.032 0.016 0.149 0.073 0.301 0.144 0.455 0.212 0.033 0.015 0.065 0.027 0.099 0.041 0.124 0.052 0.248 0.103 0.375 0.151 0.051 0.020 0.107 0.040 0.156 0.059 0.115 0.043 0.228 0.080 0.341 0.119 0.053 0.016 0.104 0.033 0.156 0.049 0.161 0.051 0.324 0.113 0.493 0.143 8.741 1.448 10.757-5.281 10.757-5.281-1.819 2.619-5.341 3.869-9.1 2.893-0.167-0.044-0.331-0.091-0.495-0.143-0.052-0.016-0.099-0.031-0.151-0.048-0.115-0.037-0.229-0.077-0.345-0.119-0.053-0.019-0.103-0.039-0.157-0.057-0.123-0.048-0.251-0.099-0.369-0.151-0.036-0.013-0.069-0.027-0.101-0.043-0.153-0.067-0.305-0.137-0.459-0.212-0.076-0.037-0.151-0.077-0.227-0.116-0.043-0.023-0.088-0.045-0.132-0.068-0.097-0.053-0.195-0.108-0.291-0.164-0.024-0.013-0.045-0.025-0.068-0.040-0.12-0.068-0.236-0.14-0.352-0.213-0.035-0.023-0.071-0.048-0.107-0.071-0.076-0.049-0.152-0.1-0.224-0.151-0.161-0.111-0.319-0.227-0.472-0.345-0.037-0.028-0.073-0.056-0.107-0.084-1.645-1.299-2.951-3.075-3.571-5.087-0.651-2.088-0.509-4.431 0.616-6.333z"></path>
<path d="M17.839 4.295c-0.999 1.469-1.097 3.292-0.405 4.915 0.731 1.723 2.228 3.072 3.975 3.713 0.071 0.027 0.143 0.051 0.216 0.075 0.032 0.011 0.064 0.021 0.096 0.031 0.103 0.032 0.203 0.071 0.311 0.089 4.827 0.932 6.135-2.476 6.483-2.979-1.147 1.652-3.075 2.048-5.437 1.473-0.188-0.045-0.393-0.112-0.573-0.176-0.231-0.084-0.459-0.176-0.679-0.283-0.42-0.201-0.819-0.447-1.193-0.727-2.113-1.605-3.431-4.668-2.048-7.163z"></path>
</symbol>
<symbol id="icon-bxl-less" viewBox="0 0 32 32">
<path d="M28.189 14.457c0-0.853 0.131-1.357 0.131-2.276 0-1.423-0.524-1.881-1.684-1.881h-0.855v1.007h0.261c0.592 0 0.723 0.196 0.723 0.919 0 0.679-0.065 1.357-0.065 2.144 0 1.007 0.328 1.4 0.985 1.553v0.065c-0.657 0.155-0.985 0.548-0.985 1.555 0 0.788 0.065 1.423 0.065 2.144 0 0.744-0.152 0.94-0.723 0.94v0.023h-0.261v1.051h0.855c1.16 0 1.684-0.459 1.684-1.881 0-0.941-0.131-1.423-0.131-2.276 0-0.46 0.284-0.941 1.139-0.985v-1.137c-0.856-0.021-1.139-0.503-1.139-0.963zM23.791 15.792c-0.657-0.261-1.269-0.416-1.269-0.853 0-0.328 0.263-0.527 0.744-0.527s0.919 0.197 1.4 0.548l0.876-1.16c-0.545-0.417-1.291-0.855-2.299-0.855-1.487 0-2.495 0.855-2.495 2.059 0 1.072 0.941 1.619 1.731 1.924 0.677 0.261 1.335 0.481 1.335 0.919 0 0.328-0.263 0.547-0.855 0.547-0.547 0-1.095-0.219-1.684-0.679l-0.876 1.269c0.656 0.547 1.663 0.919 2.495 0.919 1.751 0 2.692-0.919 2.692-2.123-0.001-1.2-0.943-1.703-1.795-1.988zM8.844 18.264c-0.152 0-0.349-0.131-0.349-0.547v-7.417h-3.109c-1.181 0-1.705 0.459-1.705 1.881 0 0.941 0.132 1.468 0.132 2.276 0 0.46-0.284 0.941-1.139 0.985v1.137c0.855 0.023 1.139 0.504 1.139 0.964 0 0.808-0.132 1.291-0.132 2.232 0 1.423 0.525 1.881 1.685 1.881h0.853v-1.007h-0.263c-0.548 0-0.723-0.219-0.723-0.941 0-0.721 0.065-1.335 0.065-2.143 0-1.008-0.327-1.4-0.984-1.553v-0.068c0.657-0.152 0.984-0.545 0.984-1.553 0-0.787-0.065-1.421-0.065-2.143 0-0.723 0.152-0.919 0.723-0.919h0.589c0 1.421 0 6.281 0 6.281 0 1.335 0.46 2.209 1.795 2.209 0.417 0 0.745-0.067 0.985-0.153l-0.22-1.421c-0.131 0.017-0.195 0.017-0.261 0.017zM18.495 15.792c-0.679-0.261-1.292-0.416-1.292-0.853 0-0.328 0.263-0.527 0.744-0.527s0.919 0.197 1.401 0.548l0.875-1.16c-0.547-0.417-1.291-0.855-2.297-0.855-1.488 0-2.496 0.855-2.496 2.059 0 1.072 0.943 1.619 1.729 1.924 0.68 0.261 1.336 0.481 1.336 0.919 0 0.328-0.263 0.547-0.855 0.547-0.547 0-1.093-0.219-1.685-0.679l-0.853 1.269c0.656 0.547 1.663 0.919 2.495 0.919 1.751 0 2.692-0.919 2.692-2.123 0.001-1.2-0.94-1.703-1.793-1.988zM12.039 12.925c-1.597 0-3.129 1.335-3.085 3.436 0 2.165 1.421 3.435 3.305 3.435 0.788 0 1.663-0.285 2.341-0.744l-0.656-1.16c-0.48 0.284-0.941 0.416-1.421 0.416-0.876 0-1.553-0.416-1.729-1.421h3.961c0.023-0.153 0.065-0.46 0.065-0.809 0.021-1.773-0.943-3.152-2.781-3.152zM10.792 15.683c0.132-0.873 0.656-1.292 1.268-1.292 0.789 0 1.095 0.548 1.095 1.292h-2.363z"></path>
</symbol>
<symbol id="icon-bxl-microsoft" viewBox="0 0 32 32">
<path d="M15.4 28h-11.4v-11.4h11.4v11.4zM28 28h-11.4v-11.4h11.4v11.4zM15.4 15.4h-11.4v-11.4h11.4v11.4zM28 15.4h-11.4v-11.4h11.4v11.4z"></path>
</symbol>
<symbol id="icon-bxl-react" viewBox="0 0 32 32">
<path d="M18.38 14.993c0 1.314-1.066 2.38-2.38 2.38s-2.38-1.066-2.38-2.38c0-1.314 1.066-2.38 2.38-2.38s2.38 1.066 2.38 2.38z"></path>
<path d="M9.336 19.725l-0.527-0.135c-3.912-0.988-6.156-2.668-6.156-4.603 0-1.936 2.245-3.615 6.156-4.603l0.527-0.133 0.148 0.521c0.396 1.364 0.901 2.696 1.515 3.977l0.113 0.237-0.113 0.237c-0.613 1.284-1.121 2.615-1.515 3.98l-0.148 0.52zM8.567 11.599c-2.972 0.837-4.797 2.115-4.797 3.389 0 1.272 1.824 2.551 4.797 3.387 0.364-1.157 0.804-2.289 1.313-3.387-0.513-1.1-0.952-2.232-1.313-3.389zM22.663 19.725l-0.147-0.523c-0.397-1.365-0.903-2.696-1.516-3.979l-0.113-0.236 0.113-0.239c0.613-1.281 1.119-2.613 1.516-3.979l0.147-0.52 0.527 0.133c3.913 0.988 6.156 2.667 6.156 4.604 0 1.936-2.244 3.615-6.156 4.603l-0.527 0.135zM22.116 14.988c0.533 1.155 0.977 2.291 1.316 3.387 2.973-0.836 4.799-2.115 4.799-3.387 0-1.275-1.824-2.551-4.799-3.389-0.364 1.157-0.803 2.289-1.316 3.389v0z"></path>
<path d="M8.559 11.593l-0.147-0.52c-1.101-3.877-0.768-6.655 0.916-7.623 1.647-0.953 4.296 0.173 7.071 3.020l0.379 0.389-0.379 0.388c-0.985 1.025-1.887 2.128-2.693 3.299l-0.151 0.216-0.261 0.021c-1.417 0.111-2.825 0.339-4.209 0.679l-0.525 0.131zM10.668 4.221c-0.299 0-0.563 0.065-0.785 0.193-1.104 0.636-1.299 2.851-0.539 5.84 1.188-0.263 2.387-0.451 3.595-0.556 0.7-0.993 1.463-1.937 2.284-2.831-1.737-1.689-3.377-2.647-4.555-2.647v0zM21.331 26.867v0c-1.584 0-3.619-1.195-5.731-3.363l-0.377-0.388 0.377-0.387c0.985-1.027 1.888-2.132 2.695-3.303l0.149-0.213 0.259-0.025c1.42-0.109 2.829-0.336 4.211-0.676l0.527-0.133 0.148 0.521c1.096 3.875 0.764 6.656-0.917 7.624-0.407 0.231-0.868 0.349-1.34 0.343v0zM16.777 23.107c1.736 1.689 3.377 2.648 4.553 2.648v0c0.3 0 0.564-0.067 0.785-0.193 1.105-0.637 1.301-2.856 0.539-5.845-1.187 0.264-2.387 0.453-3.597 0.559-0.696 0.993-1.459 1.94-2.28 2.832z"></path>
<path d="M23.44 11.593l-0.527-0.132c-1.381-0.341-2.791-0.568-4.211-0.679l-0.259-0.023-0.149-0.216c-0.805-1.171-1.708-2.273-2.695-3.299l-0.377-0.388 0.377-0.387c2.773-2.845 5.421-3.972 7.071-3.020 1.683 0.969 2.017 3.747 0.917 7.623l-0.148 0.52zM19.057 9.699c1.272 0.113 2.477 0.304 3.597 0.556 0.761-2.989 0.567-5.204-0.539-5.841-1.099-0.636-3.167 0.337-5.339 2.455 0.821 0.893 1.584 1.837 2.28 2.831zM10.668 26.867c-0.471 0.007-0.932-0.112-1.34-0.343-1.684-0.968-2.017-3.748-0.917-7.624l0.144-0.521 0.527 0.133c1.285 0.324 2.701 0.552 4.211 0.676l0.259 0.025 0.151 0.213c0.805 1.171 1.707 2.276 2.693 3.303l0.379 0.387-0.379 0.388c-2.111 2.169-4.145 3.363-5.727 3.363v0zM9.344 19.717c-0.76 2.989-0.565 5.208 0.539 5.845 1.1 0.627 3.161-0.34 5.34-2.456-0.821-0.893-1.584-1.839-2.284-2.831-1.208-0.105-2.408-0.295-3.595-0.559v0z"></path>
<path d="M16 20.417c-0.916 0-1.856-0.039-2.8-0.117l-0.261-0.023-0.151-0.216c-0.531-0.763-1.032-1.551-1.501-2.359-0.465-0.809-0.896-1.635-1.295-2.479l-0.112-0.236 0.112-0.239c0.399-0.843 0.829-1.669 1.295-2.477 0.463-0.795 0.968-1.589 1.501-2.36l0.151-0.213 0.261-0.024c1.863-0.156 3.735-0.156 5.597 0l0.259 0.025 0.151 0.213c1.065 1.532 2.004 3.149 2.8 4.837l0.111 0.239-0.111 0.236c-0.796 1.691-1.732 3.308-2.8 4.837l-0.151 0.216-0.259 0.023c-0.941 0.076-1.883 0.116-2.797 0.116v0zM13.555 19.212c1.647 0.124 3.244 0.124 4.889 0 0.92-1.347 1.735-2.757 2.443-4.224-0.705-1.469-1.523-2.881-2.443-4.224-1.628-0.125-3.261-0.125-4.889 0-0.919 1.343-1.74 2.753-2.443 4.224 0.708 1.467 1.527 2.877 2.443 4.224v0z"></path>
</symbol>
<symbol id="icon-bxl-visa" viewBox="0 0 32 32">
<path d="M22.052 12.248c-0.429-0.163-1.101-0.335-1.935-0.335-2.133 0-3.64 1.075-3.651 2.617-0.013 1.133 1.071 1.772 1.891 2.151 0.841 0.389 1.123 0.635 1.12 0.983-0.005 0.529-0.672 0.769-1.292 0.769-0.852 0-1.317-0.119-2.033-0.416l-0.265-0.124-0.303 1.776c0.519 0.216 1.453 0.401 2.419 0.417 2.268 0 3.751-1.068 3.768-2.709 0.019-0.905-0.568-1.589-1.803-2.155-0.751-0.367-1.216-0.612-1.216-0.984 0-0.329 0.399-0.681 1.232-0.681 0.719-0.011 1.219 0.144 1.617 0.305l0.2 0.089 0.303-1.716-0.052 0.012zM27.588 12.057h-1.667c-0.519 0-0.909 0.143-1.136 0.657l-3.205 7.261h2.268l0.453-1.191 2.768 0.003c0.065 0.279 0.265 1.188 0.265 1.188h2l-1.747-7.919zM13.399 11.991h2.161l-1.352 7.923h-2.159l1.349-7.925v0.003zM7.912 16.357l0.224 1.1 2.112-5.4h2.289l-3.401 7.908h-2.284l-1.867-6.696c-0.040-0.116-0.087-0.193-0.199-0.265-0.633-0.329-1.339-0.597-2.123-0.785l0.029-0.167h3.479c0.472 0.019 0.852 0.167 0.979 0.671l0.76 3.639v-0.004zM24.921 17.165l0.861-2.216c-0.011 0.024 0.177-0.457 0.287-0.755l0.148 0.684 0.5 2.285-1.796 0.001z"></path>
</symbol>
<symbol id="icon-bxl-vuejs" viewBox="0 0 32 32">
<path d="M16 17.020l7.456-12.583h-4.368l-3.088 5.339-3.083-5.339h-4.373z"></path>
<path d="M24.615 4.443l-8.615 14.537-8.615-14.537h-4.729l13.344 23.12 13.344-23.12z"></path>
</symbol>
<symbol id="icon-bxl-wix" viewBox="0 0 32 32">
<path d="M17.925 11.008c-0.533 0.283-0.725 0.749-0.725 2.040 0 0 0.269-0.259 0.665-0.404 0.291-0.1 0.536-0.26 0.683-0.367 0.451-0.329 0.513-0.749 0.513-1.461 0 0-0.737-0.021-1.136 0.192v0zM14.793 11.313c-0.427 0.381-0.557 0.985-0.557 0.985l-1.437 5.521-1.185-4.527c-0.116-0.473-0.328-1.077-0.66-1.476-0.413-0.504-1.259-0.535-1.353-0.535-0.091 0-0.945 0.031-1.368 0.543-0.328 0.404-0.541 1.001-0.657 1.477l-1.185 4.527-1.421-5.529c0 0-0.123-0.612-0.557-0.985-0.705-0.62-1.752-0.489-1.752-0.489l2.731 10.352c0 0 0.903 0.069 1.353-0.168 0.588-0.299 0.879-0.535 1.239-1.951 0.321-1.253 1.216-4.939 1.299-5.207 0.039-0.131 0.093-0.443 0.321-0.443 0.239 0 0.285 0.305 0.321 0.443 0.085 0.26 0.972 3.953 1.301 5.207 0.357 1.407 0.641 1.636 1.239 1.951 0.451 0.237 1.353 0.168 1.353 0.168l2.731-10.345c-0.003 0-1.052-0.132-1.753 0.481zM19.061 12.513c0 0-0.172 0.26-0.56 0.489-0.251 0.139-0.489 0.237-0.749 0.361-0.431 0.205-0.552 0.443-0.552 0.793v7.021c0 0 0.696 0.084 1.139-0.139 0.581-0.296 0.711-0.58 0.721-1.872v-6.655zM25.877 16.023l3.465-5.167c0 0-1.461-0.252-2.188 0.412-0.467 0.42-0.984 1.18-0.984 1.18l-1.269 1.848c-0.071 0.092-0.139 0.2-0.267 0.2-0.132 0-0.215-0.1-0.269-0.2l-1.283-1.843c0 0-0.513-0.757-0.987-1.179-0.72-0.665-2.188-0.413-2.188-0.413l3.471 5.153-3.471 5.144c0 0 1.528 0.199 2.251-0.467 0.467-0.42 0.917-1.116 0.917-1.116l1.267-1.844c0.071-0.091 0.139-0.196 0.267-0.196 0.133 0 0.215 0.1 0.269 0.196l1.269 1.844c0 0 0.473 0.68 0.933 1.116 0.717 0.665 2.223 0.467 2.223 0.467l-3.427-5.136z"></path>
</symbol>
</defs>
</svg>
