<?xml version="1.0" encoding="utf-8"?>
<!-- Generator: Adobe Illustrator 23.0.2, SVG Export Plug-In . SVG Version: 6.00 Build 0)  -->
<svg version="1.1" id="Layer_1" xmlns="http://www.w3.org/2000/svg" xmlns:xlink="http://www.w3.org/1999/xlink" x="0px" y="0px"
	 viewBox="0 0 3840 2160" style="enable-background:new 0 0 3840 2160;" xml:space="preserve">
<style type="text/css">
	.st0{display:none;}
	.st1{fill:#FFAE43;}
	.st2{display:none;fill:#FFAE43;}
	.st3{display:inline;fill:none;stroke:#000000;stroke-width:16;stroke-miterlimit:10;}
	.st4{fill:none;}
</style>
<g id="Layer_3">
	<rect y="3.1" class="st0" width="3840" height="2160"/>
</g>
<path class="st1" d="M2331.4,1093.9c0,3,0,5.4,0,7.9c0,54.8-0.1,109.6,0.1,164.4c0,5.9-1.8,8.7-7.2,11.1
	c-51.4,23.2-102.7,46.7-154,70.3c-5.8,2.7-7.3,2-7.3-4.6c0.2-55.1,0.1-110.1,0.1-165.2c0-3.9,0.6-6.4,4.8-8.3
	c53.3-24.7,106.4-49.6,159.6-74.5C2328.6,1094.5,2329.7,1094.4,2331.4,1093.9z"/>
<path class="st2" d="M1944.8,793.5c22.9-12,44.4-23.1,65.8-34.3c33.3-17.4,66.7-34.9,99.9-52.5c3.5-1.8,6.2-2.3,9.9-0.3
	c52.9,29.2,105.9,58.3,158.9,87.4c-0.8,3.1-3.7,3.3-5.7,4.3c-50.9,25.8-101.9,51.4-152.9,77.2c-3.8,1.9-7,3-11.5,0.7
	C2055,848.5,2000.6,821.5,1944.8,793.5z"/>
<g>
	<path class="st1" d="M1891.5,1450.2c-15.3-9.6-32.2-15.7-48.4-23.3c-36.8-17.2-73.9-33.9-110.8-50.8c-3.1-1.4-5.4-2.6-5.4-7
		c0.2-57.1,0.1-114.1,0.2-171.2c0-0.5,0.3-1,0.8-2.3c12.1,5.6,24.2,11.1,36.3,16.7c41.3,19.3,82.5,38.8,123.9,57.8
		c5.2,2.4,6.8,5,6.8,10.6c-0.2,56.5,0,113,0,169.5C1893.7,1450.2,1892.6,1450.2,1891.5,1450.2z"/>
	<path class="st1" d="M1945.2,1450.2c0.1-56,0.2-111.9,0-167.9c0-6.3,1.4-9.7,7.7-12.6c50.4-23.1,100.5-46.7,150.8-70.1
		c2.4-1.1,4.6-3.1,8.2-2.6c0,2.8,0,5.5,0,8.3c0,53.4-0.1,106.9,0.2,160.3c0,6.7-2.2,9.7-8.1,12.3c-49.7,22.5-99.2,45.3-148.8,68.1
		c-2.3,1.1-5.4,1.2-6.7,4.1C1947.4,1450.2,1946.3,1450.2,1945.2,1450.2z"/>
	<path class="st1" d="M2163.3,1113.7c0-2.1,0-4.5,0-6.9c0-61.8,0-123.6-0.1-185.4c0-4.7,1-7.5,5.6-9.6
		c53.2-24.9,106.2-50,159.3-75.1c0.7-0.3,1.5-0.5,2.3-0.8c1.7,2.1,0.9,4.3,0.9,6.4c0.1,62.6,0,125.3,0.1,187.9
		c0,4.5-0.6,7.5-5.4,9.7c-52.5,24.2-104.9,48.6-157.4,73C2167.2,1113.5,2165.9,1114.8,2163.3,1113.7z"/>
	<path class="st1" d="M1676.1,1115c-26.1-12.3-51-24-75.9-35.7c-28.7-13.5-57.4-27-86.1-40.5c-3.1-1.4-5.6-2.3-5.6-6.9
		c0.2-64.8,0.1-129.7,0.1-194.4c2.8-1.2,4.5,0.6,6.4,1.5c51.4,24,102.8,48.1,154.2,72c3.9,1.8,7,3.1,7,8.7
		C1676,984.3,1676.1,1048.9,1676.1,1115z"/>
	<path class="st1" d="M1945.4,1216.4c0-20.9,0-41.3,0-61.6c0-43.4,0.1-86.7-0.1-130.1c0-6.1,1.5-9.2,7.3-11.9
		c50.6-23.3,101-46.8,151.4-70.6c6.3-3,8.1-3,8.1,4.9c-0.3,61.8-0.2,123.6-0.1,185.5c0,4.7-1,7.4-5.7,9.6
		c-52,24.1-103.9,48.4-155.8,72.7C1949.1,1215.4,1947.5,1215.7,1945.4,1216.4z"/>
	<path class="st1" d="M1509,1093.3c7.7,3.5,14.8,6.6,21.7,9.9c46.1,21.6,92.1,43.3,138.3,64.7c5.4,2.5,7.2,5.3,7.2,11.2
		c-0.2,54.3-0.3,108.5,0,162.8c0,7.6-1.4,8-8,4.9c-51-23.6-102.3-46.8-153.4-70c-3.6-1.6-6.3-3-6.3-8.3c0.3-57,0.2-114.1,0.2-171.1
		C1508.6,1096.3,1508.8,1095.3,1509,1093.3z"/>
	<path class="st1" d="M1727.5,690.9c22.9-12,44.4-23.1,65.8-34.3c33.3-17.4,66.7-34.9,99.9-52.5c3.5-1.8,6.2-2.3,9.9-0.3
		c52.9,29.2,105.9,58.3,158.9,87.4c-0.8,3.1-3.7,3.3-5.7,4.3c-50.9,25.8-101.9,51.4-152.9,77.2c-3.8,1.9-7,3-11.5,0.7
		C1837.8,745.9,1783.4,718.8,1727.5,690.9z"/>
	<path class="st1" d="M1861.7,793.2c-28.4,14.3-56.5,28.4-84.5,42.6c-23.4,11.8-46.8,23.5-70.1,35.4c-3,1.5-5.6,2.8-9.2,1
		c-53.7-26.3-107.5-52.5-161.3-78.8c-0.9-0.5-1.7-1.3-2.8-2.3c52-26.9,103.7-53.6,155.4-80.4c3-1.5,5.4-2,8.5-0.5
		c53.9,27,107.9,54,161.8,81C1860.1,791.7,1860.6,792.3,1861.7,793.2z"/>
</g>
<g class="st0">
	<line class="st3" x1="1936.5" y1="1372" x2="2123.5" y2="1279.2"/>
	<line class="st3" x1="2153.4" y1="1275.1" x2="2343.5" y2="1180.7"/>
	<line class="st3" x1="2153.8" y1="1028" x2="2349.9" y2="930.7"/>
	<line class="st3" x1="1925" y1="1125" x2="2121.7" y2="1034.3"/>
	<line class="st3" x1="2034.2" y1="940.3" x2="2045.5" y2="1438.4"/>
	<line class="st3" x1="1586" y1="727.7" x2="1810.8" y2="847.7"/>
	<line class="st3" x1="1801" y1="602.3" x2="2015.1" y2="730.2"/>
	<line class="st3" x1="1486.3" y1="1167.7" x2="1909" y2="1374.3"/>
	<line class="st3" x1="1493.6" y1="940.3" x2="1916.3" y2="1147"/>
	<line class="st3" x1="1584.6" y1="849" x2="2046.3" y2="617"/>
	<line class="st3" x1="1584.6" y1="849" x2="1587.4" y2="1341.5"/>
	<line class="st3" x1="1803.5" y1="1200.5" x2="1809.2" y2="1450.7"/>
	<line class="st3" x1="2247.1" y1="854.3" x2="2251.9" y2="1354.3"/>
</g>
<line class="st4" x1="990.3" y1="633" x2="1012.3" y2="648.3"/>
</svg>
