<?xml version="1.0" encoding="utf-8"?>
<!-- Generator: Adobe Illustrator 23.0.2, SVG Export Plug-In . SVG Version: 6.00 Build 0)  -->
<svg version="1.1" id="Layer_1" xmlns="http://www.w3.org/2000/svg" xmlns:xlink="http://www.w3.org/1999/xlink" x="0px" y="0px"
	 viewBox="0 0 512 512" style="enable-background:new 0 0 512 512;" xml:space="preserve">
<style type="text/css">
	.st0{fill:#FFAE43;}
</style>
<g>
	<path class="st0" d="M497.7,295.7c0,1.8,0,3.2,0,4.6c0,32.2-0.1,64.4,0.1,96.6c0,3.5-1,5.1-4.2,6.5c-30.2,13.6-60.3,27.4-90.4,41.3
		c-3.4,1.6-4.3,1.2-4.3-2.7c0.1-32.4,0.1-64.7,0-97.1c0-2.3,0.4-3.7,2.8-4.9c31.3-14.5,62.5-29.1,93.8-43.7
		C496,296.1,496.7,296,497.7,295.7z"/>
	<path class="st0" d="M239.2,505c-9-5.6-18.9-9.2-28.4-13.7c-21.6-10.1-43.4-19.9-65.1-29.8c-1.8-0.8-3.2-1.5-3.2-4.1
		c0.1-33.5,0.1-67,0.1-100.5c0-0.3,0.2-0.6,0.4-1.3c7.1,3.3,14.2,6.5,21.3,9.8c24.3,11.3,48.5,22.8,72.8,34c3,1.4,4,2.9,4,6.2
		c-0.1,33.2,0,66.4,0,99.6C240.5,505,239.9,505,239.2,505z"/>
	<path class="st0" d="M270.8,505c0-32.9,0.1-65.7,0-98.6c0-3.7,0.8-5.7,4.5-7.4c29.6-13.6,59.1-27.4,88.6-41.2
		c1.4-0.7,2.7-1.8,4.8-1.5c0,1.6,0,3.3,0,4.9c0,31.4-0.1,62.8,0.1,94.2c0,3.9-1.3,5.7-4.7,7.2c-29.2,13.2-58.3,26.6-87.4,40
		c-1.4,0.6-3.2,0.7-3.9,2.4C272.1,505,271.5,505,270.8,505z"/>
	<path class="st0" d="M398.9,307.3c0-1.2,0-2.6,0-4.1c0-36.3,0-72.6-0.1-108.9c0-2.7,0.6-4.4,3.3-5.7c31.2-14.6,62.4-29.4,93.6-44.1
		c0.4-0.2,0.9-0.3,1.4-0.5c1,1.2,0.5,2.5,0.5,3.8c0,36.8,0,73.6,0.1,110.4c0,2.7-0.4,4.4-3.2,5.7c-30.9,14.2-61.6,28.6-92.5,42.9
		C401.2,307.2,400.4,308,398.9,307.3z"/>
	<path class="st0" d="M112.7,308.1c-15.4-7.2-30-14.1-44.6-21c-16.9-7.9-33.7-15.9-50.6-23.8c-1.8-0.8-3.3-1.4-3.3-4
		c0.1-38.1,0.1-76.2,0.1-114.2c1.6-0.7,2.7,0.4,3.8,0.9c30.2,14.1,60.4,28.2,90.6,42.3c2.3,1.1,4.1,1.8,4.1,5.1
		C112.6,231.3,112.7,269.3,112.7,308.1z"/>
	<path class="st0" d="M270.9,367.7c0-12.3,0-24.2,0-36.2c0-25.5,0.1-50.9-0.1-76.4c0-3.6,0.9-5.4,4.3-7
		c29.7-13.7,59.4-27.5,88.9-41.5c3.7-1.8,4.8-1.8,4.8,2.9c-0.2,36.3-0.1,72.6,0,109c0,2.7-0.6,4.4-3.3,5.6
		c-30.5,14.1-61,28.4-91.5,42.7C273.1,367.1,272.1,367.3,270.9,367.7z"/>
	<path class="st0" d="M14.6,295.4c4.5,2.1,8.7,3.9,12.8,5.8c27.1,12.7,54.1,25.5,81.2,38c3.2,1.5,4.2,3.1,4.2,6.6
		c-0.1,31.9-0.2,63.7,0,95.6c0,4.4-0.8,4.7-4.7,2.9c-30-13.8-60.1-27.5-90.1-41.1c-2.1-1-3.7-1.8-3.7-4.9c0.2-33.5,0.1-67,0.1-100.5
		C14.3,297.1,14.4,296.5,14.6,295.4z"/>
	<path class="st0" d="M142.9,58.9c13.5-7,26.1-13.6,38.7-20.2c19.6-10.2,39.2-20.5,58.7-30.8c2.1-1.1,3.6-1.4,5.8-0.2
		C277.2,25,308.4,42,339.5,59.1c-0.5,1.8-2.2,1.9-3.3,2.5c-29.9,15.1-59.9,30.2-89.8,45.3c-2.2,1.1-4.1,1.7-6.8,0.4
		C207.7,91.3,175.7,75.3,142.9,58.9z"/>
	<path class="st0" d="M221.7,119.1c-16.7,8.4-33.2,16.7-49.6,25c-13.7,6.9-27.5,13.8-41.2,20.8c-1.8,0.9-3.3,1.6-5.4,0.6
		c-31.6-15.5-63.2-30.9-94.8-46.3c-0.6-0.3-1-0.8-1.6-1.3C59.6,102,90,86.4,120.4,70.6c1.7-0.9,3.2-1.2,5-0.3
		c31.7,15.9,63.4,31.7,95,47.6C220.8,118.2,221.1,118.5,221.7,119.1z"/>
</g>
</svg>
