<?xml version="1.0" encoding="utf-8"?>
<!-- Generator: Adobe Illustrator 23.0.2, SVG Export Plug-In . SVG Version: 6.00 Build 0)  -->
<svg version="1.1" id="Layer_1" xmlns="http://www.w3.org/2000/svg" xmlns:xlink="http://www.w3.org/1999/xlink" x="0px" y="0px"
	 viewBox="0 0 1051.9 995.7" style="enable-background:new 0 0 1051.9 995.7;" xml:space="preserve">
<style type="text/css">
	.st0{display:none;}
	.st1{fill:#FFAE43;}
	.st2{display:inline;fill:none;stroke:#000000;stroke-width:16;stroke-miterlimit:10;}
	.st3{fill:none;}
</style>
<g id="Layer_3">
	<rect x="-1155.8" y="-518.6" class="st0" width="3840" height="2160"/>
</g>
<g id="Layer_4">
	<text transform="matrix(0.9963 0 0 1 1712.2141 1601.9326)" class="st1 st2 st3">OnTheGrid.com</text>
	<path class="st1" d="M495.5,901.7c-15.3-9.6-32.2-15.7-48.4-23.3c-36.8-17.2-73.9-33.9-110.8-50.8c-3.1-1.4-5.4-2.6-5.4-7
		c0.2-57.1,0.1-114.1,0.2-171.2c0-0.5,0.3-1,0.8-2.3c12.1,5.6,24.2,11.1,36.3,16.7c41.3,19.3,82.5,38.8,123.9,57.8
		c5.2,2.4,6.8,5,6.8,10.6c-0.2,56.5,0,113,0,169.5C497.7,901.7,496.6,901.7,495.5,901.7z"/>
	<path class="st1" d="M549.2,901.7c0.1-56,0.2-111.9,0-167.9c0-6.3,1.4-9.7,7.7-12.6c50.4-23.1,100.5-46.7,150.8-70.1
		c2.4-1.1,4.6-3.1,8.2-2.6c0,2.8,0,5.5,0,8.3c0,53.4-0.1,106.9,0.2,160.3c0,6.7-2.2,9.7-8.1,12.3c-49.7,22.5-99.2,45.3-148.8,68.1
		c-2.3,1.1-5.4,1.2-6.7,4.1C551.5,901.7,550.4,901.7,549.2,901.7z"/>
	<path class="st1" d="M767.3,565.3c0-2.1,0-4.5,0-6.9c0-61.8,0-123.6-0.1-185.4c0-4.7,1-7.5,5.6-9.6c53.2-24.9,106.2-50,159.3-75.1
		c0.7-0.3,1.5-0.5,2.3-0.8c1.7,2.1,0.9,4.3,0.9,6.4c0.1,62.6,0,125.3,0.1,187.9c0,4.5-0.6,7.5-5.4,9.7
		c-52.5,24.2-104.9,48.6-157.4,73C771.2,565.1,769.9,566.4,767.3,565.3z"/>
	<path class="st1" d="M280.1,566.6c-26.1-12.3-51-24-75.9-35.7c-28.7-13.5-57.4-27-86.1-40.5c-3.1-1.4-5.6-2.3-5.6-6.9
		c0.2-64.8,0.1-129.7,0.1-194.4c2.8-1.2,4.5,0.6,6.4,1.5c51.4,24,102.8,48.1,154.2,72c3.9,1.8,7,3.1,7,8.7
		C280,435.9,280.1,500.5,280.1,566.6z"/>
	<path class="st1" d="M549.4,667.9c0-20.9,0-41.3,0-61.6c0-43.4,0.1-86.7-0.1-130.1c0-6.1,1.5-9.2,7.3-11.9
		c50.6-23.3,101-46.8,151.4-70.6c6.3-3,8.1-3,8.1,4.9c-0.3,61.8-0.2,123.6-0.1,185.5c0,4.7-1,7.4-5.7,9.6
		c-52,24.1-103.9,48.4-155.8,72.7C553.1,667,551.5,667.3,549.4,667.9z"/>
	<path class="st1" d="M113,544.9c7.7,3.5,14.8,6.6,21.7,9.9c46.1,21.6,92.1,43.3,138.3,64.7c5.4,2.5,7.2,5.3,7.2,11.2
		c-0.2,54.3-0.3,108.5,0,162.8c0,7.6-1.4,8-8,4.9c-51-23.6-102.3-46.8-153.4-70c-3.6-1.6-6.3-3-6.3-8.3c0.3-57,0.2-114.1,0.2-171.1
		C112.7,547.9,112.9,546.9,113,544.9z"/>
	<path class="st1" d="M935.4,545.5c0,3,0,5.4,0,7.9c0,54.8-0.1,109.6,0.1,164.4c0,5.9-1.8,8.7-7.2,11.1
		c-51.4,23.2-102.7,46.7-154,70.3c-5.8,2.7-7.3,2-7.3-4.6c0.2-55.1,0.1-110.1,0.1-165.2c0-3.9,0.6-6.4,4.8-8.3
		c53.3-24.7,106.4-49.6,159.6-74.5C932.6,546.1,933.7,545.9,935.4,545.5z"/>
	<path class="st1" d="M599.9,245.1c22.9-12,44.4-23.1,65.8-34.3c33.3-17.4,66.7-34.9,99.9-52.5c3.5-1.8,6.2-2.3,9.9-0.3
		c52.9,29.2,105.9,58.3,158.9,87.4c-0.8,3.1-3.7,3.3-5.7,4.3c-50.9,25.8-101.9,51.4-152.9,77.2c-3.8,1.9-7,3-11.5,0.7
		C710.1,300.1,655.7,273,599.9,245.1z"/>
	<path class="st1" d="M465.7,244.8c-28.4,14.3-56.5,28.4-84.5,42.6c-23.4,11.8-46.8,23.5-70.1,35.4c-3,1.5-5.6,2.8-9.2,1
		c-53.7-26.3-107.5-52.5-161.3-78.8c-0.9-0.5-1.7-1.3-2.8-2.3c52-26.9,103.7-53.6,155.4-80.4c3-1.5,5.4-2,8.5-0.5
		c53.9,27,107.9,54,161.8,81C464.1,243.2,464.6,243.9,465.7,244.8z"/>
	<g class="st0">
		<line class="st2" x1="540.5" y1="823.6" x2="727.5" y2="730.8"/>
		<line class="st2" x1="757.4" y1="726.7" x2="947.6" y2="632.3"/>
		<line class="st2" x1="757.9" y1="479.6" x2="953.9" y2="382.3"/>
		<line class="st2" x1="529" y1="576.6" x2="725.7" y2="485.9"/>
		<line class="st2" x1="638.3" y1="391.9" x2="649.5" y2="889.9"/>
		<line class="st2" x1="190" y1="179.2" x2="414.9" y2="299.2"/>
		<line class="st2" x1="405" y1="53.9" x2="619.2" y2="181.8"/>
		<line class="st2" x1="90.4" y1="619.2" x2="513" y2="825.9"/>
		<line class="st2" x1="97.7" y1="391.9" x2="520.4" y2="598.5"/>
		<line class="st2" x1="188.6" y1="300.6" x2="650.4" y2="68.6"/>
		<line class="st2" x1="188.6" y1="300.6" x2="191.5" y2="793"/>
		<line class="st2" x1="407.6" y1="652.1" x2="413.2" y2="902.3"/>
		<line class="st2" x1="851.2" y1="305.9" x2="855.9" y2="805.9"/>
	</g>
	<line class="st3" x1="-405.6" y1="84.6" x2="-383.6" y2="99.9"/>
</g>
</svg>
