<?xml version="1.0" encoding="utf-8"?>
<!-- Generator: Adobe Illustrator 23.0.2, SVG Export Plug-In . SVG Version: 6.00 Build 0)  -->
<svg version="1.1" id="Layer_1" xmlns="http://www.w3.org/2000/svg" xmlns:xlink="http://www.w3.org/1999/xlink" x="0px" y="0px"
	 viewBox="0 0 1156.1 1273" style="enable-background:new 0 0 1156.1 1273;" xml:space="preserve">
<style type="text/css">
	.st0{display:none;}
	.st1{fill:#FFAE43;}
	.st2{font-family:'Roboto-Medium';}
	.st3{font-size:72px;}
	.st4{display:none;fill:#FFAE43;}
	.st5{display:inline;fill:none;stroke:#000000;stroke-width:16;stroke-miterlimit:10;}
	.st6{fill:none;}
</style>
<g id="Layer_3">
	<rect x="-1346.6" y="-482.6" class="st0" width="3840" height="2160"/>
</g>

<path class="st1" d="M550.7,967.6c-15.1-9.6-31.8-15.7-47.8-23.3c-36.3-17.2-72.9-33.9-109.4-50.8c-3.1-1.4-5.3-2.6-5.3-7
	c0.2-57.1,0.1-114.1,0.2-171.2c0-0.5,0.3-1,0.7-2.3c12,5.6,23.9,11.1,35.8,16.7c40.8,19.3,81.5,38.8,122.4,57.8
	c5.1,2.4,6.7,5,6.7,10.6c-0.2,56.5,0,113,0,169.5C553,967.6,551.9,967.6,550.7,967.6z"/>
<path class="st1" d="M603.8,967.6c0.1-56,0.2-111.9,0-167.9c0-6.3,1.4-9.7,7.6-12.6c49.7-23.1,99.3-46.7,148.9-70.1
	c2.4-1.1,4.6-3.1,8.1-2.6c0,2.8,0,5.5,0,8.3c0,53.4-0.1,106.9,0.2,160.3c0,6.7-2.1,9.7-8,12.3c-49.1,22.5-97.9,45.3-146.9,68.1
	c-2.3,1.1-5.3,1.2-6.6,4.1C606,967.6,604.9,967.6,603.8,967.6z"/>
<path class="st1" d="M819.1,631.1c0-2.1,0-4.5,0-6.9c0-61.8,0-123.6-0.1-185.4c0-4.7,1-7.5,5.6-9.6c52.5-24.9,104.9-50,157.3-75.1
	c0.7-0.3,1.5-0.5,2.3-0.8c1.7,2.1,0.9,4.3,0.9,6.4c0.1,62.6,0,125.3,0.1,187.9c0,4.5-0.6,7.5-5.4,9.7
	c-51.9,24.2-103.6,48.6-155.4,73C823,630.9,821.6,632.3,819.1,631.1z"/>
<path class="st1" d="M338.1,632.5c-25.8-12.3-50.3-24-74.9-35.7c-28.3-13.5-56.7-27-85-40.5c-3-1.4-5.5-2.3-5.5-6.9
	c0.2-64.8,0.1-129.7,0.1-194.4c2.8-1.2,4.5,0.6,6.3,1.5c50.7,24,101.4,48.1,152.2,72c3.9,1.8,6.9,3.1,6.9,8.7
	C338,501.7,338.1,566.3,338.1,632.5z"/>
<path class="st1" d="M604,733.8c0-20.9,0-41.3,0-61.6c0-43.4,0.1-86.7-0.1-130.1c0-6.1,1.5-9.2,7.2-11.9
	c49.9-23.3,99.8-46.8,149.5-70.6c6.2-3,8-3,8,4.9c-0.3,61.8-0.2,123.6-0.1,185.5c0,4.7-1,7.4-5.6,9.6
	c-51.3,24.1-102.5,48.4-153.8,72.7C607.6,732.9,606,733.2,604,733.8z"/>
<path class="st1" d="M173.2,610.8c7.6,3.5,14.6,6.6,21.5,9.9c45.5,21.6,90.9,43.3,136.5,64.7c5.3,2.5,7.1,5.3,7.1,11.2
	c-0.2,54.3-0.3,108.5,0,162.8c0,7.6-1.4,8-7.9,4.9c-50.4-23.6-100.9-46.8-151.5-70c-3.5-1.6-6.3-3-6.2-8.3
	c0.3-57,0.2-114.1,0.2-171.1C172.8,613.7,173,612.7,173.2,610.8z"/>
<path class="st1" d="M985.1,611.3c0,3,0,5.4,0,7.9c0,54.8-0.1,109.6,0.1,164.4c0,5.9-1.8,8.7-7.1,11.1
	c-50.8,23.2-101.4,46.7-152,70.3c-5.8,2.7-7.2,2-7.2-4.6c0.2-55.1,0.1-110.1,0.1-165.2c0-3.9,0.6-6.4,4.8-8.3
	c52.6-24.7,105.1-49.6,157.6-74.5C982.3,611.9,983.4,611.8,985.1,611.3z"/>
<path class="st1" d="M388.9,208.3c22.7-12,43.8-23.1,65-34.3c32.9-17.4,65.8-34.9,98.7-52.5c3.4-1.8,6.1-2.3,9.8-0.3
	c52.2,29.2,104.6,58.3,156.9,87.4c-0.8,3.1-3.6,3.3-5.6,4.3c-50.3,25.8-100.6,51.4-151,77.2c-3.8,1.9-6.9,3-11.4,0.7
	C497.8,263.3,444,236.2,388.9,208.3z"/>
<path class="st4" d="M603.4,311c22.7-12,43.8-23.1,65-34.3c32.9-17.4,65.8-34.9,98.7-52.5c3.4-1.8,6.1-2.3,9.8-0.3
	c52.2,29.2,104.6,58.3,156.9,87.4c-0.8,3.1-3.6,3.3-5.6,4.3c-50.3,25.8-100.6,51.4-151,77.2c-3.8,1.9-6.9,3-11.4,0.7
	C712.3,366,658.5,338.9,603.4,311z"/>
<path class="st1" d="M521.4,310.7c-28,14.3-55.7,28.4-83.4,42.6c-23.1,11.8-46.2,23.5-69.2,35.4c-3,1.5-5.5,2.8-9.1,1
	c-53.1-26.3-106.2-52.5-159.3-78.8c-0.9-0.5-1.7-1.3-2.7-2.3C248.9,281.7,300,255,351,228.2c2.9-1.5,5.4-2,8.4-0.5
	c53.2,27,106.5,54,159.7,81C519.8,309.1,520.3,309.7,521.4,310.7z"/>
<g class="st0">
	<line class="st5" x1="595.2" y1="889.5" x2="779.8" y2="796.7"/>
	<line class="st5" x1="809.3" y1="792.5" x2="997.1" y2="698.2"/>
	<line class="st5" x1="809.8" y1="545.5" x2="1003.3" y2="448.2"/>
	<line class="st5" x1="583.9" y1="642.4" x2="778" y2="551.8"/>
	<line class="st5" x1="691.7" y1="457.7" x2="702.8" y2="955.8"/>
	<line class="st5" x1="249.2" y1="245.1" x2="471.1" y2="365.1"/>
	<line class="st5" x1="461.4" y1="119.8" x2="672.8" y2="247.6"/>
	<line class="st5" x1="150.8" y1="685.1" x2="568.1" y2="891.8"/>
	<line class="st5" x1="158" y1="457.7" x2="575.3" y2="664.4"/>
	<line class="st5" x1="247.8" y1="366.4" x2="703.6" y2="134.4"/>
	<line class="st5" x1="247.8" y1="366.4" x2="250.6" y2="858.9"/>
	<line class="st5" x1="463.9" y1="718" x2="469.5" y2="968.2"/>
	<line class="st5" x1="901.9" y1="371.8" x2="906.6" y2="871.8"/>
</g>
<line class="st6" x1="-338.9" y1="150.4" x2="-317.2" y2="165.8"/>
</svg>
