<?xml version="1.0" encoding="utf-8"?>
<!-- Generator: Adobe Illustrator 25.2.1, SVG Export Plug-In . SVG Version: 6.00 Build 0)  -->
<svg version="1.1" xmlns="http://www.w3.org/2000/svg" xmlns:xlink="http://www.w3.org/1999/xlink" x="0px" y="0px"
     viewBox="0 0 3840 2160"  style="enable-background:new 0 0 3840 2160;" >
<style type="text/css">
    .st0{display:none;}
    .st1{fill:#FFAE43;}
    .st2{font-family:'Roboto-Medium';}
    .st3{font-size:72px;}
    .st4{display:inline;stroke:#000000;stroke-width:16;stroke-miterlimit:10;}
    .st5{stroke:#000000;stroke-width:16;stroke-miterlimit:10;}
</style>
<g id="Layer_3">
    <rect class="st0" width="3840" height="2160"/>
</g>
<g id="Layer_2">
</g>
<g id="Layer_1">
</g>
<g id="Layer_4">
    <path class="st1" d="M1891.46,1450.152c-15.261-9.588-32.204-15.714-48.424-23.3c-36.809-17.215-73.852-33.934-110.823-50.801
        c-3.146-1.435-5.408-2.616-5.392-7.047c0.207-57.05,0.144-114.101,0.173-171.152c0-0.493,0.32-0.985,0.758-2.251
        c12.143,5.582,24.238,11.065,36.268,16.688c41.305,19.304,82.532,38.776,123.947,57.839c5.151,2.371,6.825,4.97,6.809,10.566
        c-0.163,56.486-0.017,112.972,0.042,169.459C1893.699,1450.152,1892.58,1450.152,1891.46,1450.152z"/>
    <path class="st1" d="M1945.189,1450.152c0.059-55.958,0.219-111.915,0.039-167.872c-0.02-6.332,1.403-9.697,7.663-12.564
        c50.387-23.076,100.539-46.665,150.776-70.069c2.445-1.139,4.632-3.13,8.232-2.633c0,2.775,0,5.539,0,8.302
        c0,53.444-0.148,106.89,0.186,160.332c0.042,6.72-2.157,9.656-8.079,12.334c-49.685,22.468-99.214,45.283-148.751,68.078
        c-2.347,1.08-5.398,1.23-6.708,4.091C1947.428,1450.152,1946.309,1450.152,1945.189,1450.152z"/>
    <path class="st1" d="M2163.25,1113.696c0-2.087,0-4.508,0-6.93c0-61.79,0.045-123.579-0.09-185.368
        c-0.01-4.676,0.994-7.471,5.622-9.637c53.177-24.886,106.241-50.013,159.34-75.066c0.713-0.337,1.489-0.542,2.326-0.842
        c1.71,2.059,0.88,4.338,0.882,6.385c0.056,62.628,0.01,125.257,0.119,187.885c0.008,4.53-0.606,7.477-5.423,9.693
        c-52.534,24.169-104.933,48.63-157.375,72.999C2167.186,1113.496,2165.858,1114.822,2163.25,1113.696z"/>
    <path class="st1" d="M1676.063,1115.011c-26.133-12.314-50.987-24.039-75.852-35.74c-28.703-13.507-57.407-27.014-86.141-40.457
        c-3.061-1.432-5.581-2.332-5.568-6.868c0.191-64.849,0.13-129.7,0.13-194.43c2.79-1.217,4.533,0.604,6.422,1.486
        c51.396,23.994,102.759,48.058,154.168,72.023c3.904,1.82,7.004,3.119,6.984,8.698
        C1675.982,984.3,1676.063,1048.876,1676.063,1115.011z"/>
    <path class="st1" d="M1945.367,1216.364c0-20.885,0-41.253,0-61.621c0-43.36,0.126-86.72-0.144-130.078
        c-0.038-6.082,1.475-9.217,7.318-11.904c50.593-23.26,101.038-46.844,151.394-70.613c6.311-2.979,8.149-3.005,8.115,4.861
        c-0.27,61.821-0.191,123.644-0.068,185.466c0.009,4.66-0.985,7.436-5.67,9.605c-51.995,24.075-103.862,48.426-155.78,72.668
        C1949.083,1215.425,1947.458,1215.722,1945.367,1216.364z"/>
    <path class="st1" d="M1509.005,1093.326c7.708,3.496,14.762,6.604,21.74,9.873c46.085,21.594,92.1,43.337,138.298,64.687
        c5.411,2.501,7.187,5.284,7.161,11.167c-0.237,54.251-0.265,108.504,0.003,162.754c0.037,7.557-1.398,7.992-7.995,4.946
        c-51.039-23.565-102.252-46.754-153.416-70.046c-3.595-1.637-6.348-3.046-6.324-8.262c0.259-57.047,0.162-114.096,0.176-171.144
        C1508.647,1096.292,1508.823,1095.281,1509.005,1093.326z"/>
    <path class="st1" d="M2331.375,1093.884c0,3.015,0,5.45,0,7.885c0,54.792-0.101,109.584,0.147,164.375
        c0.027,5.904-1.775,8.652-7.168,11.088c-51.423,23.225-102.727,46.715-153.966,70.343c-5.838,2.692-7.287,2.009-7.261-4.645
        c0.217-55.071,0.148-110.143,0.069-165.214c-0.006-3.933,0.615-6.378,4.837-8.332c53.275-24.661,106.417-49.609,159.604-74.459
        C2328.574,1094.488,2329.651,1094.354,2331.375,1093.884z"/>
    <path class="st1" d="M1995.821,793.524c22.945-11.963,44.403-23.121,65.832-34.333c33.337-17.442,66.681-34.871,99.942-52.456
        c3.49-1.845,6.183-2.35,9.898-0.298c52.918,29.229,105.929,58.291,158.939,87.405c-0.793,3.054-3.664,3.257-5.682,4.279
        c-50.946,25.779-101.946,51.449-152.914,77.185c-3.808,1.923-6.955,2.954-11.504,0.655
        C2106.089,848.55,2051.686,821.454,1995.821,793.524z"/>
    <path class="st1" d="M1861.688,793.24c-28.401,14.303-56.455,28.431-84.508,42.56c-23.386,11.779-46.788,23.526-70.135,35.38
        c-3.042,1.544-5.598,2.779-9.214,1.006c-53.738-26.344-107.546-52.544-161.321-78.812c-0.944-0.461-1.682-1.346-2.783-2.254
        c52.034-26.889,103.73-53.574,155.37-80.367c2.964-1.538,5.425-2.024,8.531-0.466c53.911,27.05,107.86,54.024,161.788,81.039
        C1860.082,791.66,1860.593,792.303,1861.688,793.24z"/>
    <g class="st0">
        <line class="st4" x1="1936.507" y1="1372.028" x2="2123.467" y2="1279.244"/>
        <line class="st4" x1="2153.384" y1="1275.086" x2="2343.528" y2="1180.721"/>
        <line class="st4" x1="2153.841" y1="1028.029" x2="2349.882" y2="930.738"/>
        <line class="st4" x1="1925" y1="1125" x2="2121.659" y2="1034.308"/>
        <line class="st5" x1="2034.225" y1="940.302" x2="2045.492" y2="1438.352"/>
        <line class="st5" x1="1585.999" y1="727.667" x2="1810.82" y2="847.667"/>
        <line class="st5" x1="1801" y1="602.333" x2="2015.128" y2="730.178"/>
        <line class="st5" x1="1486.333" y1="1167.667" x2="1909" y2="1374.333"/>
        <line class="st5" x1="1493.649" y1="940.302" x2="1916.315" y2="1146.969"/>
        <line class="st5" x1="1584.584" y1="849" x2="2046.333" y2="617"/>
        <line class="st5" x1="1584.584" y1="849" x2="1587.414" y2="1341.472"/>
        <line class="st5" x1="1803.527" y1="1200.527" x2="1809.188" y2="1450.744"/>
        <line class="st4" x1="2247.11" y1="854.339" x2="2251.862" y2="1354.333"/>
    </g>
    <line class="st1" x1="990.333" y1="633" x2="1012.333" y2="648.333"/>
</g>
</svg>
