<svg aria-hidden="true" style="position: absolute; width: 0; height: 0; overflow: hidden;" version="1.1" xmlns="http://www.w3.org/2000/svg" xmlns:xlink="http://www.w3.org/1999/xlink">
<defs>
<symbol id="icon-bx-minus" viewBox="0 0 32 32">
<path d="M6.667 14.667h18.667v2.667h-18.667z"></path>
</symbol>
<symbol id="icon-bx-plus" viewBox="0 0 32 32">
<path d="M25.333 14.667h-8v-8h-2.667v8h-8v2.667h8v8h2.667v-8h8z"></path>
</symbol>
<symbol id="icon-bx-images" viewBox="0 0 32 32">
<path d="M26.667 2.667h-16c-1.471 0-2.667 1.196-2.667 2.667v16c0 1.471 1.196 2.667 2.667 2.667h16c1.471 0 2.667-1.196 2.667-2.667v-16c0-1.471-1.196-2.667-2.667-2.667zM10.667 21.333v-16h16l0.003 16h-16.003z"></path>
<path d="M5.333 10.667h-2.667v16c0 1.471 1.196 2.667 2.667 2.667h16v-2.667h-16v-16z"></path>
<path d="M16 16l-1.333-1.333-2.667 4h13.333l-5.333-8z"></path>
</symbol>
<symbol id="icon-bx-left-arrow-alt" viewBox="0 0 32 32">
<path d="M16.943 23.057l-5.724-5.724h12.781v-2.667h-12.781l5.724-5.724-1.885-1.885-8.943 8.943 8.943 8.943z"></path>
</symbol>
<symbol id="icon-bx-play-circle" viewBox="0 0 32 32">
<path d="M16 2.667c-7.352 0-13.333 5.981-13.333 13.333s5.981 13.333 13.333 13.333 13.333-5.981 13.333-13.333-5.981-13.333-13.333-13.333zM16 26.667c-5.881 0-10.667-4.785-10.667-10.667s4.785-10.667 10.667-10.667 10.667 4.785 10.667 10.667-4.785 10.667-10.667 10.667z"></path>
<path d="M12 22.667l10.667-6.667-10.667-6.667z"></path>
</symbol>
<symbol id="icon-bx-right-arrow-alt" viewBox="0 0 32 32">
<path d="M15.057 23.057l1.885 1.885 8.943-8.943-8.943-8.943-1.885 1.885 5.724 5.724h-12.781v2.667h12.781z"></path>
</symbol>
<symbol id="icon-bxl-instagram-alt" viewBox="0 0 32 32">
<path d="M27.929 11.073c-0.015-1.009-0.201-2.011-0.559-2.955-0.625-1.612-1.899-2.887-3.511-3.511-0.932-0.351-1.917-0.539-2.915-0.56-1.283-0.057-1.689-0.073-4.945-0.073s-3.673 0-4.947 0.073c-0.996 0.021-1.981 0.209-2.913 0.56-1.612 0.624-2.887 1.899-3.511 3.511-0.351 0.932-0.54 1.917-0.559 2.913-0.057 1.284-0.075 1.691-0.075 4.947s0 3.672 0.075 4.947c0.020 0.997 0.208 1.981 0.559 2.916 0.625 1.611 1.899 2.885 3.512 3.509 0.928 0.363 1.913 0.568 2.913 0.6 1.284 0.057 1.691 0.075 4.947 0.075s3.673 0 4.947-0.075c0.996-0.020 1.981-0.208 2.915-0.559 1.612-0.625 2.885-1.9 3.511-3.511 0.351-0.933 0.539-1.917 0.559-2.916 0.057-1.283 0.075-1.689 0.075-4.947-0.003-3.256-0.003-3.669-0.077-4.945zM15.992 22.136c-3.405 0-6.164-2.759-6.164-6.164s2.759-6.164 6.164-6.164c3.403 0 6.164 2.759 6.164 6.164s-2.761 6.164-6.164 6.164zM22.401 11.017c-0.796 0-1.437-0.643-1.437-1.437s0.641-1.437 1.437-1.437c0.793 0 1.436 0.643 1.436 1.437s-0.643 1.437-1.436 1.437z"></path>
<path d="M19.996 15.972c0 2.211-1.793 4.004-4.004 4.004s-4.004-1.793-4.004-4.004c0-2.211 1.793-4.004 4.004-4.004s4.004 1.793 4.004 4.004z"></path>
</symbol>
<symbol id="icon-bxl-twitter" viewBox="0 0 32 32">
<path d="M26.177 10.663c0.017 0.233 0.017 0.465 0.017 0.697 0 7.1-5.404 15.281-15.28 15.281-3.043 0-5.869-0.881-8.248-2.412 0.432 0.049 0.848 0.067 1.297 0.067 2.511 0 4.821-0.848 6.668-2.295-2.361-0.049-4.34-1.596-5.023-3.724 0.332 0.049 0.665 0.083 1.015 0.083 0.481 0 0.965-0.067 1.415-0.183-2.463-0.499-4.307-2.66-4.307-5.271v-0.067c0.716 0.399 1.547 0.648 2.427 0.681-1.447-0.963-2.395-2.609-2.395-4.472 0-0.997 0.265-1.912 0.731-2.709 2.644 3.257 6.619 5.387 11.075 5.62-0.083-0.4-0.133-0.815-0.133-1.231 0-2.96 2.395-5.371 5.371-5.371 1.547 0 2.943 0.648 3.924 1.696 1.213-0.233 2.376-0.683 3.408-1.297-0.399 1.247-1.248 2.295-2.361 2.96 1.081-0.117 2.129-0.416 3.092-0.832-0.731 1.064-1.644 2.012-2.692 2.777z"></path>
</symbol>
<symbol id="icon-bxl-vimeo" viewBox="0 0 32 32">
<path d="M28.083 13.885c-2.715 5.799-9.265 13.689-13.405 13.689-4.080 0-4.668-8.703-6.897-14.492-1.097-2.851-1.805-2.195-3.861-0.756l-1.252-1.619c2.997-2.635 5.999-5.696 7.84-5.865 2.079-0.197 3.356 1.221 3.831 4.257 0.633 3.992 1.516 10.188 3.055 10.188 1.2 0 4.156-4.915 4.309-6.672 0.271-2.573-1.895-2.652-3.771-1.849 2.971-9.727 15.325-7.933 10.152 3.119z"></path>
</symbol>
<symbol id="icon-behance" viewBox="0 0 32 32">
<path d="M9.281 6.412c0.944 0 1.794 0.081 2.569 0.25 0.775 0.162 1.431 0.438 1.988 0.813 0.55 0.375 0.975 0.875 1.287 1.5 0.3 0.619 0.45 1.394 0.45 2.313 0 0.994-0.225 1.819-0.675 2.481-0.456 0.662-1.119 1.2-2.006 1.625 1.213 0.35 2.106 0.962 2.706 1.831 0.6 0.875 0.887 1.925 0.887 3.163 0 1-0.194 1.856-0.575 2.581-0.387 0.731-0.912 1.325-1.556 1.781-0.65 0.462-1.4 0.8-2.237 1.019-0.831 0.219-1.688 0.331-2.575 0.331h-9.544v-19.688h9.281zM8.719 14.363c0.769 0 1.406-0.181 1.906-0.55 0.5-0.363 0.738-0.963 0.738-1.787 0-0.456-0.081-0.838-0.244-1.131-0.169-0.294-0.387-0.525-0.669-0.688-0.275-0.169-0.588-0.281-0.956-0.344-0.356-0.069-0.731-0.1-1.113-0.1h-4.050v4.6h4.388zM8.956 22.744c0.425 0 0.831-0.038 1.213-0.125 0.387-0.087 0.731-0.219 1.019-0.419 0.287-0.194 0.531-0.45 0.706-0.788 0.175-0.331 0.256-0.756 0.256-1.275 0-1.012-0.287-1.738-0.856-2.175-0.569-0.431-1.325-0.644-2.262-0.644h-4.7v5.419h4.625z"></path>
<path d="M22.663 22.675c0.587 0.575 1.431 0.863 2.531 0.863 0.788 0 1.475-0.2 2.044-0.6s0.913-0.825 1.044-1.262h3.45c-0.556 1.719-1.394 2.938-2.544 3.675-1.131 0.738-2.519 1.113-4.125 1.113-1.125 0-2.131-0.181-3.038-0.538-0.906-0.363-1.663-0.869-2.3-1.531-0.619-0.663-1.106-1.45-1.45-2.375-0.337-0.919-0.512-1.938-0.512-3.038 0-1.069 0.175-2.063 0.525-2.981 0.356-0.925 0.844-1.719 1.494-2.387s1.413-1.2 2.313-1.588c0.894-0.387 1.881-0.581 2.975-0.581 1.206 0 2.262 0.231 3.169 0.706 0.9 0.469 1.644 1.1 2.225 1.887s0.994 1.694 1.25 2.706c0.256 1.012 0.344 2.069 0.275 3.175h-10.294c0 1.119 0.375 2.188 0.969 2.756zM27.156 15.188c-0.462-0.512-1.256-0.794-2.212-0.794-0.625 0-1.144 0.106-1.556 0.319-0.406 0.213-0.738 0.475-0.994 0.787-0.25 0.313-0.425 0.65-0.525 1.006-0.1 0.344-0.163 0.663-0.181 0.938h6.375c-0.094-1-0.438-1.738-0.906-2.256z"></path>
<path d="M20.887 8h7.981v1.944h-7.981v-1.944z"></path>
</symbol>
</defs>
</svg>
